<?xml version="1.0" standalone="no"?>
<!DOCTYPE svg PUBLIC "-//W3C//DTD SVG 20010904//EN"
 "http://www.w3.org/TR/2001/REC-SVG-20010904/DTD/svg10.dtd">
<svg version="1.0" xmlns="http://www.w3.org/2000/svg"
 width="864.000000pt" height="1184.000000pt" viewBox="0 0 864.000000 1184.000000"
 preserveAspectRatio="xMidYMid meet">

<g transform="translate(0.000000,1184.000000) scale(0.100000,-0.100000)"
fill="#000000" stroke="none">
<path d="M0 5920 l0 -5920 4320 0 4320 0 0 5920 0 5920 -4320 0 -4320 0 0
-5920z m4665 3756 c133 -21 317 -69 435 -113 215 -80 417 -185 427 -221 2 -10
17 -23 33 -30 56 -25 197 -138 301 -242 109 -108 213 -240 254 -320 13 -25 34
-61 48 -81 23 -34 108 -241 141 -344 44 -138 94 -386 117 -580 6 -55 15 -106
19 -114 4 -7 38 -33 76 -56 68 -41 110 -87 140 -153 8 -18 36 -60 62 -93 l47
-61 0 -142 c0 -216 -19 -635 -25 -552 l-5 70 -35 9 c-19 5 -39 13 -45 18 -6 6
-19 -110 -36 -333 -15 -189 -30 -377 -34 -418 l-8 -75 41 39 c48 46 58 67 76
166 9 50 14 63 15 41 1 -19 -4 -64 -10 -100 -11 -62 -16 -70 -75 -129 -35 -35
-64 -66 -64 -68 0 -2 -14 -23 -31 -48 -32 -45 -93 -79 -231 -131 -26 -10 -52
-23 -56 -29 -5 -6 -19 -49 -32 -96 -155 -585 -290 -884 -509 -1123 -71 -76
-81 -92 -81 -125 -1 -51 -38 -315 -39 -277 -1 17 6 90 15 164 8 73 13 135 11
137 -2 2 -53 -47 -114 -109 -109 -111 -110 -113 -122 -177 -10 -52 -89 -409
-152 -683 -10 -43 -14 -48 -33 -43 -11 3 -27 6 -33 6 -7 0 -13 7 -13 15 0 8
34 162 75 342 42 180 74 331 73 335 -2 5 -41 -22 -88 -59 -167 -134 -281 -199
-388 -222 -62 -13 -228 -14 -257 -1 -12 6 14 7 70 3 112 -7 185 7 290 56 109
51 209 116 345 226 125 101 428 403 503 502 48 62 127 216 127 246 0 9 5 19
10 22 6 3 10 16 10 27 0 11 8 39 18 62 11 23 28 68 39 101 12 33 39 111 62
174 53 144 104 323 181 625 60 240 78 295 65 201 -3 -28 -8 -89 -10 -135 -2
-47 -6 -103 -10 -124 -6 -32 -5 -38 6 -33 8 3 54 22 103 41 119 48 133 58 147
108 6 24 15 51 20 60 22 42 44 305 57 681 6 155 4 197 -5 197 -7 0 -13 6 -13
13 0 6 -5 4 -11 -6 -6 -9 -15 -15 -21 -11 -5 4 -33 8 -62 10 -28 1 -54 3 -58
3 -14 2 0 521 17 618 l6 32 37 -24 c20 -14 48 -34 62 -45 14 -11 28 -20 33
-20 4 0 7 -9 7 -19 0 -11 4 -22 9 -25 18 -11 28 144 15 214 -5 24 -18 39 -53
60 -25 16 -60 37 -78 48 l-31 20 -7 -76 c-3 -43 -10 -110 -15 -150 -6 -40 -10
-109 -10 -154 0 -90 -18 -211 -30 -203 -4 3 -11 -5 -15 -18 -9 -29 -10 -25
-39 139 -31 173 -83 347 -138 462 l-41 87 5 274 c3 199 8 276 16 279 13 4 18
355 6 400 -11 41 -19 23 -20 -45 0 -38 -4 -262 -9 -499 l-8 -431 41 -95 c98
-229 160 -533 182 -889 10 -176 1 -391 -20 -429 -10 -18 -110 -343 -116 -376
-11 -60 -149 -546 -184 -648 -86 -249 -213 -448 -429 -669 -42 -43 -92 -92
-113 -108 l-36 -29 45 152 c78 268 181 568 232 673 68 142 117 213 240 340
153 158 174 188 42 60 -143 -140 -219 -240 -286 -379 -59 -121 -162 -417 -226
-646 -64 -231 -55 -215 -176 -310 -253 -201 -395 -290 -464 -290 -42 0 -57 13
-117 100 -26 38 -48 59 -72 67 -51 17 -706 17 -738 0 -12 -7 -45 -48 -72 -90
-48 -75 -50 -77 -90 -77 -71 0 -212 86 -463 283 l-117 92 -25 80 c-13 44 -47
157 -76 250 -122 401 -202 592 -308 731 -33 43 -108 126 -168 184 -121 119
-97 85 48 -65 115 -119 162 -187 231 -331 52 -112 153 -405 231 -672 l45 -152
-79 71 c-147 133 -290 307 -383 468 -83 143 -132 288 -256 746 -29 105 -76
271 -105 370 -73 248 -79 295 -72 543 7 231 25 402 63 571 30 131 95 335 127
395 22 40 22 47 21 431 -1 451 -11 664 -27 625 -6 -15 -11 -110 -11 -233 0
-168 2 -210 14 -217 11 -7 14 -58 18 -252 l5 -244 -38 -84 c-77 -175 -125
-352 -171 -638 -11 -68 -22 -18 -22 100 0 87 -6 151 -20 218 -16 75 -42 256
-42 296 0 4 -8 0 -17 -8 -10 -8 -38 -25 -63 -37 -25 -12 -53 -27 -62 -35 -31
-23 -39 -102 -23 -238 8 -68 15 -132 16 -143 0 -14 3 -12 9 9 11 35 28 47 55
41 11 -3 14 -2 7 1 -10 5 -8 10 8 21 18 12 24 13 30 3 6 -9 10 -7 15 9 10 33
22 25 29 -21 12 -85 26 -275 26 -358 l0 -85 -85 0 -85 1 -1 -36 -2 -35 -7 40
-7 40 -2 -40 c-3 -88 46 -854 55 -864 2 -2 5 16 5 40 1 42 2 42 10 -16 19
-127 31 -142 164 -193 44 -16 88 -33 99 -38 16 -6 17 -4 11 17 -7 21 -14 281
-8 275 2 -1 25 -94 53 -207 92 -370 150 -559 233 -764 25 -61 64 -162 87 -225
73 -204 101 -248 256 -414 108 -114 133 -145 76 -91 l-53 50 5 -75 6 -75 -14
83 c-14 82 -14 82 -88 165 -130 144 -207 262 -285 438 -53 122 -152 419 -214
642 l-43 157 -38 10 c-21 6 -76 27 -123 46 -73 31 -90 43 -123 86 -20 28 -65
80 -98 117 -51 54 -64 75 -73 119 -6 29 -11 67 -10 85 1 38 4 30 19 -47 10
-46 20 -66 49 -95 21 -21 43 -46 50 -57 10 -16 11 -11 7 31 -9 87 -56 674 -65
815 -8 131 -8 132 -10 43 0 -50 -5 -94 -10 -97 -4 -3 -22 -7 -40 -8 -22 -2
-31 -7 -31 -20 0 -10 -4 -18 -9 -18 -11 0 -24 360 -19 536 l3 131 45 57 c25
31 53 72 63 91 9 19 22 35 27 35 6 0 10 9 10 19 0 24 38 56 122 106 l65 38 12
101 c31 260 80 484 150 688 44 126 87 229 100 238 4 3 26 41 49 85 58 112 154
236 265 341 97 93 251 215 299 236 15 7 31 22 37 34 21 46 275 172 489 243
128 42 315 84 447 100 115 14 490 6 610 -13z m-2768 -3218 c-2 -13 -4 -5 -4
17 -1 22 1 32 4 23 2 -10 2 -28 0 -40z m10 -125 c-3 -10 -5 -4 -5 12 0 17 2
24 5 18 2 -7 2 -21 0 -30z m4820 -65 c-3 -8 -6 -5 -6 6 -1 11 2 17 5 13 3 -3
4 -12 1 -19z m-4810 -45 c-3 -10 -5 -2 -5 17 0 19 2 27 5 18 2 -10 2 -26 0
-35z m4800 -75 c-2 -13 -4 -5 -4 17 -1 22 1 32 4 23 2 -10 2 -28 0 -40z
m-4790 -25 c-3 -10 -5 -2 -5 17 0 19 2 27 5 18 2 -10 2 -26 0 -35z m4360 -145
c-3 -8 -6 -5 -6 6 -1 11 2 17 5 13 3 -3 4 -12 1 -19z m24 -195 c-9 -16 -10
-16 -11 3 0 12 3 37 8 55 l7 34 3 -37 c2 -21 -1 -46 -7 -55z m-381 -883 c-6
-11 -13 -20 -16 -20 -2 0 0 9 6 20 6 11 13 20 16 20 2 0 0 -9 -6 -20z m-39
-62 c-136 -215 -357 -438 -671 -675 -273 -206 -379 -244 -436 -154 l-17 26 30
-27 c56 -53 138 -33 283 70 351 248 608 486 763 705 61 87 87 116 48 55z
m-3061 -105 c113 -148 291 -323 501 -490 48 -37 99 -78 115 -91 l29 -23 -35
22 c-65 42 -273 213 -364 299 -96 91 -211 219 -264 294 -47 65 -33 57 18 -11z
m1867 -597 c17 -19 17 -19 -1 -6 -14 11 -87 16 -345 21 l-326 6 327 -1 c311
-1 328 -2 345 -20z m-717 5 c-20 -4 -42 -11 -50 -15 -8 -4 -6 0 4 8 11 9 34
15 50 15 31 -1 31 -1 -4 -8z m-440 -57 c0 -3 -13 4 -30 16 -16 12 -30 24 -30
26 0 3 14 -4 30 -16 17 -12 30 -24 30 -26z m-493 -21 c-3 -10 -5 -2 -5 17 0
19 2 27 5 18 2 -10 2 -26 0 -35z m297 -107 c12 -42 156 -675 156 -684 0 -9
-60 -26 -66 -19 -2 2 -42 174 -89 383 -47 208 -89 388 -92 398 -4 14 7 9 40
-19 25 -21 48 -47 51 -59z m-287 22 c-2 -13 -4 -5 -4 17 -1 22 1 32 4 23 2
-10 2 -28 0 -40z m774 2 c-27 -23 -64 -25 -106 -5 -29 14 -24 14 37 0 16 -4
37 -1 55 9 38 21 43 19 14 -4z m-426 -50 c10 -11 16 -20 13 -20 -3 0 -13 9
-23 20 -10 11 -16 20 -13 20 3 0 13 -9 23 -20z m2172 -52 c-2 -13 -4 -5 -4 17
-1 22 1 32 4 23 2 -10 2 -28 0 -40z m-2497 -45 c0 -5 -35 -16 -78 -27 -223
-53 -402 -136 -481 -222 -60 -66 -84 -130 -83 -228 0 -51 -2 -66 -9 -53 -16
27 -12 140 5 182 9 20 33 60 53 88 l38 52 -37 -28 c-47 -36 -93 -108 -109
-170 -33 -135 29 -307 163 -453 l38 -41 -32 -13 c-54 -21 -328 -153 -325 -156
2 -2 85 33 186 77 l182 80 62 -54 c114 -98 242 -179 426 -271 621 -311 1314
-380 1971 -195 334 94 650 247 890 429 250 191 370 422 315 608 -14 45 -41 89
-51 80 -2 -2 4 -26 12 -53 18 -57 13 -140 -12 -226 -43 -148 -193 -319 -374
-426 -188 -112 -531 -259 -740 -318 -113 -32 -370 -81 -500 -96 -140 -16 -543
-7 -665 15 -233 42 -569 143 -765 230 -41 19 -123 55 -182 81 -133 59 -303
168 -374 241 -74 76 -163 231 -152 265 2 6 17 -8 32 -32 64 -99 115 -156 211
-234 278 -228 594 -377 1040 -489 186 -46 501 -71 719 -57 312 21 492 60 766
166 340 132 582 262 750 403 162 136 230 249 230 381 0 97 -37 169 -125 244
-97 83 -208 134 -393 183 -116 30 -126 33 -120 39 7 7 172 -40 283 -80 55 -20
145 -49 200 -65 348 -100 922 -330 993 -398 28 -27 44 -35 68 -33 28 2 261
-68 351 -105 33 -14 35 -17 20 -32 -15 -15 -20 -15 -64 0 -132 44 -278 99
-287 108 -6 6 -19 10 -29 10 -14 0 -17 -4 -12 -17 43 -104 44 -251 4 -412
l-24 -95 -83 -70 c-46 -39 -95 -78 -109 -86 -14 -8 -38 -26 -53 -40 -36 -33
-291 -204 -405 -271 -435 -256 -987 -455 -1450 -523 -60 -9 -124 -19 -141 -21
l-31 -5 -7 142 c-3 78 -11 147 -16 152 -14 14 -888 15 -900 1 -5 -6 -11 -74
-12 -151 l-3 -139 -45 3 c-86 6 -336 53 -495 94 -395 101 -786 263 -1115 463
-123 75 -348 227 -382 258 -14 13 -32 27 -39 30 -8 3 -57 40 -109 82 -105 85
-101 77 -136 261 -19 103 -15 213 11 287 9 27 14 52 10 55 -3 3 -29 -4 -58
-17 -28 -13 -65 -26 -82 -31 -16 -4 -50 -15 -75 -23 -164 -57 -164 -57 -178
-43 -12 11 -1 18 65 44 135 51 272 92 310 92 28 0 45 9 77 38 29 27 87 58 201
106 200 84 546 214 685 256 58 17 153 50 211 72 58 22 162 55 230 73 140 38
139 38 139 28z m646 -110 c85 -41 147 -51 268 -47 87 3 89 3 36 -7 -73 -14
-192 -5 -262 20 -62 21 -174 85 -223 126 -18 15 -2 8 40 -17 39 -23 102 -56
141 -75z m2316 -282 c11 -59 -6 -147 -42 -228 -16 -35 -31 -63 -35 -63 -3 0 3
17 14 38 31 61 51 142 49 201 -1 42 -2 47 -5 19 -2 -20 -11 -42 -18 -48 -12
-10 -18 -5 -33 31 l-19 43 24 26 c13 14 26 34 29 44 6 19 7 19 17 0 6 -10 14
-38 19 -63z m-3432 -36 l-7 -90 -1 70 c-2 61 6 121 13 113 1 -2 -1 -43 -5 -93z
m50 31 c0 -6 5 -4 10 4 8 12 10 12 9 -5 0 -24 -27 -86 -28 -66 -1 8 -7 11 -17
7 -12 -5 -15 -2 -10 10 3 8 6 26 6 38 0 13 6 23 15 23 8 0 15 -5 15 -11z m-43
-148 c-3 -8 -6 -5 -6 6 -1 11 2 17 5 13 3 -3 4 -12 1 -19z m902 -85 c13 -45 8
-53 -30 -53 -22 0 -32 6 -39 26 -14 37 -13 44 13 54 38 15 46 11 56 -27z
m1673 19 c4 -4 4 -21 -1 -37 -7 -27 -12 -30 -41 -27 -19 1 -35 4 -37 5 -1 2 2
20 8 41 10 34 13 37 37 31 15 -3 30 -10 34 -13z m-1639 -158 c9 -38 30 -123
47 -189 24 -97 35 -93 13 5 -3 14 -3 23 0 20 3 -3 20 -69 37 -145 16 -77 33
-150 35 -163 5 -21 3 -23 -17 -17 -64 18 -74 26 -86 68 -15 53 -112 456 -112
466 0 10 42 30 55 27 6 -1 18 -34 28 -72z m1602 62 c18 -13 18 -18 -14 -162
-45 -199 -89 -345 -109 -366 -9 -9 -31 -19 -49 -23 l-31 -6 13 53 c7 29 23
102 36 161 24 117 39 140 20 31 -24 -137 -2 -68 39 126 46 211 50 219 95 186z
m785 -20 c0 -2 -8 -10 -17 -17 -16 -13 -17 -12 -4 4 13 16 21 21 21 13z m-903
-198 c-3 -7 -5 -2 -5 12 0 14 2 19 5 13 2 -7 2 -19 0 -25z m-285 -953 c4 -5 8
-65 8 -132 l0 -122 -37 -8 c-49 -10 -757 -10 -806 0 l-37 8 6 102 c3 56 7 116
10 132 l4 30 422 0 c282 1 425 -3 430 -10z m3351 -1191 c25 -75 99 -152 173
-177 47 -17 50 -37 9 -50 -76 -25 -153 -99 -178 -173 -17 -47 -37 -50 -50 -9
-25 76 -99 153 -173 178 -47 17 -50 37 -9 50 48 16 114 65 146 109 16 23 29
45 29 49 0 4 5 20 10 34 12 33 31 28 43 -11z"/>
<path d="M4310 9599 c0 -3 -35 -6 -77 -6 -43 0 -100 -3 -128 -7 -27 -4 -68 -9
-90 -11 -93 -10 -132 -16 -165 -27 -38 -13 -39 -13 -89 -23 -19 -3 -37 -8 -41
-10 -4 -2 -21 -7 -39 -10 -44 -8 -183 -55 -198 -67 -7 -5 -27 -12 -45 -15 -18
-2 -41 -12 -50 -20 -10 -9 -18 -13 -18 -9 0 4 -12 -6 -26 -21 -15 -15 -21 -20
-14 -10 11 14 10 17 -7 17 -16 0 -52 -20 -139 -78 -10 -6 -29 -17 -41 -23 -32
-17 -37 -69 -23 -279 6 -100 9 -184 7 -186 -6 -6 -18 125 -28 301 -7 134 -7
132 -4 -50 8 -382 74 -764 165 -950 69 -142 200 -262 396 -362 184 -94 342
-139 532 -150 l112 -6 0 -104 c0 -97 1 -103 21 -103 19 0 20 5 18 103 l-2 102
109 7 c249 17 454 87 664 227 232 154 315 301 379 671 44 248 77 636 62 730
-7 47 -9 36 -11 -80 -1 -74 -6 -162 -10 -195 -5 -36 -6 0 -2 92 5 164 -4 213
-39 213 -18 0 -57 17 -69 30 -3 4 -23 11 -46 18 -22 6 -56 26 -75 44 -36 35
-87 63 -134 73 -5 2 -28 11 -50 20 -22 10 -44 18 -50 19 -5 1 -23 6 -40 13
-42 17 -118 37 -129 34 -6 -1 -26 5 -45 13 -82 35 -229 58 -404 65 -18 1 -26
5 -21 12 5 8 1 8 -13 0 -11 -6 -23 -8 -26 -5 -8 8 -77 11 -77 3z m83 -383 c23
2 52 6 65 10 13 4 22 2 22 -5 0 -6 7 -11 15 -11 8 0 15 5 15 11 0 5 5 7 11 3
21 -13 79 -22 85 -13 3 5 10 9 15 9 6 0 7 -4 4 -10 -4 -6 6 -10 22 -10 16 0
34 -5 41 -12 7 -7 12 -8 12 -3 0 4 9 0 20 -10 11 -10 28 -15 40 -12 11 3 20 1
20 -3 0 -4 10 -6 23 -4 12 3 2 -4 -23 -14 l-45 -20 -1 -113 -1 -114 10 105 c5
58 15 108 21 112 19 13 149 50 183 53 56 4 31 -18 -47 -43 -41 -13 -79 -28
-84 -32 -5 -5 -8 -81 -7 -169 2 -138 0 -162 -13 -167 -23 -9 -20 -51 5 -64 11
-7 23 -9 26 -7 2 3 -5 8 -16 12 -24 7 -28 43 -6 51 21 8 47 -16 42 -38 -3 -10
-1 -16 4 -12 15 9 10 30 -11 49 -17 15 -20 31 -20 100 0 45 3 116 6 158 l7 76
61 20 c82 26 116 33 116 24 -1 -19 -19 -31 -75 -50 -69 -23 -62 6 -55 -225 l4
-133 6 165 5 164 44 13 c24 7 53 15 64 19 14 4 17 3 12 -6 -6 -9 -4 -11 5 -5
8 5 23 10 34 11 12 1 32 5 46 8 14 3 19 4 12 0 -6 -3 -10 -10 -6 -15 3 -5 -3
-9 -13 -9 -11 0 -47 -9 -81 -21 l-61 -21 6 -182 c5 -165 4 -183 -11 -189 -9
-4 -57 -35 -106 -69 l-89 -63 -1 -70 c0 -58 -4 -74 -20 -88 -25 -21 -25 -32
-1 -56 42 -42 92 10 52 53 -17 18 -21 35 -21 89 l0 67 105 70 105 70 0 95 0
95 32 20 c17 10 59 29 92 41 34 13 67 29 75 37 16 16 26 4 41 -46 7 -26 4 -29
-86 -71 l-94 -44 -1 -86 0 -86 -69 -44 c-38 -24 -79 -55 -92 -68 -13 -13 -31
-31 -40 -41 -21 -19 -23 -43 -6 -60 17 -17 55 -15 62 4 7 18 -8 50 -26 56 -20
7 0 26 93 88 l89 61 0 83 0 84 96 38 c62 26 99 46 104 59 8 19 9 19 9 -2 1
-13 7 -23 15 -23 8 0 17 -7 20 -16 3 -9 13 -14 21 -11 9 4 12 1 8 -9 -3 -7 0
-14 6 -14 6 0 18 -14 26 -30 9 -17 20 -28 25 -25 6 3 7 -1 4 -9 -4 -11 0 -16
11 -16 9 0 14 -4 10 -10 -3 -5 6 -17 20 -26 14 -9 25 -25 25 -35 0 -11 5 -19
11 -19 5 0 7 -4 4 -10 -3 -5 -1 -18 4 -27 8 -14 11 -15 11 -3 1 8 8 42 16 75
l14 60 -6 -60 c-16 -183 -74 -420 -127 -520 -81 -152 -351 -345 -598 -425
-159 -52 -245 -64 -454 -64 -157 0 -208 4 -293 23 -248 53 -495 182 -652 341
-72 72 -109 134 -146 241 -29 86 -71 296 -78 394 -5 60 -3 52 19 -55 13 -69
25 -132 26 -140 0 -8 6 1 13 20 l13 35 7 -28 c3 -15 11 -27 16 -27 5 0 7 -6 4
-14 -3 -8 -1 -17 5 -21 6 -3 11 1 11 10 0 9 4 13 10 10 6 -3 7 1 4 9 -3 9 -1
16 5 16 10 0 15 -14 12 -33 -1 -5 3 -5 9 -2 6 4 9 13 6 21 -4 11 3 13 29 9 38
-4 59 12 49 41 -5 16 -4 16 5 4 5 -8 20 -16 31 -16 11 -1 18 1 16 4 -3 2 3 16
14 30 11 13 17 29 13 35 -3 5 -1 7 5 3 6 -3 22 8 37 26 15 18 24 27 20 21 -4
-8 -1 -11 7 -8 8 3 14 15 15 26 1 12 10 27 20 35 13 9 14 13 4 14 -11 0 -11 3
-1 15 7 8 10 29 8 45 -3 17 -1 33 4 36 5 3 8 2 7 -3 -1 -4 -1 -44 0 -88 l2
-80 94 -60 c52 -33 95 -64 95 -68 0 -4 -7 -18 -15 -31 -26 -40 5 -77 46 -56
25 14 25 56 -1 72 -11 7 -20 18 -20 24 0 6 -41 39 -91 74 l-91 63 7 76 c4 42
7 86 7 99 0 12 4 22 9 22 6 0 9 7 7 16 -2 10 3 19 10 21 9 4 12 -19 12 -94 l1
-98 109 -73 110 -74 0 -66 c0 -57 -3 -69 -21 -80 -29 -18 -23 -66 9 -70 13 -2
30 2 38 8 18 16 18 59 -1 66 -11 5 -15 23 -15 78 l0 73 -105 74 -105 74 0 95
c0 113 9 200 21 200 5 0 9 -8 9 -17 0 -29 9 -9 13 30 3 29 0 41 -15 51 -17 12
-17 14 -3 20 11 4 14 2 9 -6 -5 -7 -2 -9 8 -5 14 5 16 -11 18 -121 3 -211 15
-242 23 -62 10 198 8 189 29 187 16 -1 18 -14 18 -143 0 -114 -3 -144 -15
-154 -34 -28 5 -71 45 -50 24 13 27 55 5 64 -12 4 -15 31 -15 153 0 94 4 143
9 133 6 -8 7 -18 5 -22 -3 -4 2 -8 10 -8 12 0 16 11 16 44 0 72 17 61 19 -12
1 -37 5 -87 8 -112 l7 -45 7 55 c4 30 7 81 8 113 1 36 5 56 11 52 5 -3 34 7
62 23 29 16 58 27 65 25 6 -2 28 5 49 16 22 12 47 18 60 15 12 -3 32 0 45 7
13 6 46 13 73 14 31 2 52 8 55 17 3 8 6 9 8 2 2 -6 22 -9 46 -8z m810 -133
c-7 -2 -21 -2 -30 0 -10 3 -4 5 12 5 17 0 24 -2 18 -5z m-1428 -13 c3 -6 -1
-7 -9 -4 -18 7 -21 14 -7 14 6 0 13 -4 16 -10z m1318 -38 c-9 -6 -5 -17 17
-43 31 -36 38 -59 17 -59 -7 0 -45 -16 -85 -35 l-72 -34 0 74 c0 73 1 75 28
81 15 3 41 10 57 14 40 11 53 11 38 2z m47 -18 c0 -2 -7 -4 -15 -4 -8 0 -15 4
-15 10 0 5 7 7 15 4 8 -4 15 -8 15 -10z m35 -11 c-3 -51 -7 -58 -14 -28 -4 17
-3 36 2 43 13 17 14 16 12 -15z m-1735 3 c0 -2 -9 -6 -20 -9 -11 -3 -18 -1
-14 4 5 9 34 13 34 5z m2077 -183 c-3 -10 -5 -4 -5 12 0 17 2 24 5 18 2 -7 2
-21 0 -30z m-2380 -85 c-2 -13 -4 -5 -4 17 -1 22 1 32 4 23 2 -10 2 -28 0 -40z
m2370 5 c-3 -10 -5 -4 -5 12 0 17 2 24 5 18 2 -7 2 -21 0 -30z m-1662 -23 c0
-8 -10 -16 -22 -18 -22 -3 -32 16 -16 32 12 11 38 2 38 -14z m-30 -305 c0 -13
-8 -21 -22 -23 -17 -3 -23 2 -23 16 0 10 3 22 7 26 13 13 38 1 38 -19z m1059
8 c4 -9 2 -21 -3 -26 -15 -15 -46 -3 -49 21 -3 18 1 22 21 22 14 0 28 -7 31
-17z m-980 -69 c23 -9 20 -41 -4 -49 -35 -11 -54 17 -28 43 14 14 12 14 32 6z
m881 -10 c20 -21 15 -38 -13 -42 -24 -4 -38 18 -28 43 7 19 21 19 41 -1z"/>
<path d="M3420 8240 c-25 -25 -27 -82 -4 -105 19 -19 58 -13 87 12 20 19 23
83 5 101 -19 19 -66 14 -88 -8z m67 -36 c3 -8 0 -21 -6 -27 -10 -9 -12 -9 -9
3 2 10 -3 14 -14 12 -12 -2 -16 2 -12 13 8 20 33 19 41 -1z"/>
<path d="M5134 8252 c-12 -7 -17 -31 -15 -64 3 -51 98 -81 121 -39 16 32 12
60 -15 86 -24 25 -68 33 -91 17z m76 -53 c7 -11 9 -23 6 -27 -3 -3 -6 0 -6 6
0 7 -7 12 -15 12 -18 0 -20 -16 -2 -23 7 -4 6 -6 -4 -6 -22 -1 -43 25 -35 44
8 22 43 18 56 -6z"/>
<path d="M5305 9370 c8 -13 84 -50 103 -50 12 0 12 3 2 15 -7 8 -18 15 -25 15
-7 0 -18 7 -25 15 -14 17 -65 21 -55 5z"/>
<path d="M5642 8910 c0 -14 2 -19 5 -12 2 6 2 18 0 25 -3 6 -5 1 -5 -13z"/>
<path d="M3011 8524 c0 -11 3 -14 6 -6 3 7 2 16 -1 19 -3 4 -6 -2 -5 -13z"/>
<path d="M5622 8500 c0 -14 2 -19 5 -12 2 6 2 18 0 25 -3 6 -5 1 -5 -13z"/>
<path d="M3023 8335 c0 -33 2 -45 4 -27 2 18 2 45 0 60 -2 15 -4 0 -4 -33z"/>
<path d="M5613 8300 c0 -25 2 -35 4 -22 2 12 2 32 0 45 -2 12 -4 2 -4 -23z"/>
<path d="M3033 8150 c0 -36 2 -50 4 -32 2 17 2 47 0 65 -2 17 -4 3 -4 -33z"/>
<path d="M5603 8095 c0 -38 2 -53 4 -32 2 20 2 52 0 70 -2 17 -4 1 -4 -38z"/>
<path d="M3043 7965 c0 -38 2 -53 4 -32 2 20 2 52 0 70 -2 17 -4 1 -4 -38z"/>
<path d="M5593 7915 c0 -38 2 -53 4 -32 2 20 2 52 0 70 -2 17 -4 1 -4 -38z"/>
<path d="M3053 7795 c0 -38 2 -53 4 -32 2 20 2 52 0 70 -2 17 -4 1 -4 -38z"/>
<path d="M5583 7740 c0 -36 2 -50 4 -32 2 17 2 47 0 65 -2 17 -4 3 -4 -33z"/>
<path d="M3062 7648 c-2 -66 -3 -68 -28 -68 -49 0 -149 -31 -234 -73 -163 -79
-254 -198 -315 -411 -30 -104 -68 -372 -51 -355 3 2 12 59 21 126 32 247 88
392 195 506 76 81 177 135 320 171 l95 24 3 36 c2 20 1 53 -1 74 -2 22 -4 11
-5 -30z"/>
<path d="M5574 7611 l1 -44 94 -23 c127 -31 229 -81 298 -146 111 -105 163
-221 213 -473 l9 -50 -5 63 c-14 173 -102 379 -205 481 -65 63 -233 137 -359
157 -36 6 -39 9 -43 43 -4 30 -4 28 -3 -8z"/>
<path d="M1948 7280 c-10 -20 -18 -44 -18 -54 0 -10 -7 -25 -16 -33 -15 -15
-14 -18 7 -34 37 -28 50 -4 47 84 l-3 74 -17 -37z"/>
<path d="M6660 7249 c0 -66 18 -128 31 -107 8 11 10 11 18 -1 7 -11 11 -9 20
8 13 24 7 41 -15 41 -8 0 -12 4 -9 10 3 5 -5 31 -19 57 l-25 48 -1 -56z"/>
<path d="M3145 7143 c-62 -14 -148 -48 -191 -75 -27 -17 -54 -31 -61 -32 -7
-1 -19 -8 -26 -16 -10 -12 -9 -12 8 0 11 8 7 0 -9 -18 -32 -34 -48 -44 -25
-14 13 15 12 16 -4 3 -10 -8 -16 -20 -13 -27 3 -7 0 -16 -6 -20 -7 -5 -8 -2
-3 7 8 12 6 12 -9 0 -9 -8 -15 -20 -12 -28 3 -8 2 -11 -4 -8 -12 7 -33 -32
-24 -47 5 -7 3 -8 -5 -4 -8 5 -14 0 -18 -13 -3 -12 -9 -21 -13 -21 -8 0 -38
-90 -44 -135 -3 -16 -7 -39 -11 -50 -13 -46 207 -242 320 -284 137 -51 270
-49 439 9 104 35 308 135 336 165 l20 21 -20 84 c-75 297 -195 446 -402 495
-59 14 -178 18 -223 8z m203 -162 c161 -82 203 -282 87 -419 -71 -85 -201
-116 -303 -72 -58 25 -123 90 -147 147 -19 45 -22 155 -5 198 26 67 97 135
167 161 52 19 148 12 201 -15z"/>
<path d="M3159 6847 c-69 -46 -76 -142 -14 -204 30 -30 39 -33 90 -33 51 0 60
3 90 33 87 87 31 227 -90 227 -27 0 -54 -8 -76 -23z"/>
<path d="M5310 7140 c-236 -37 -359 -181 -444 -514 -10 -40 -12 -65 -5 -77 10
-20 126 -87 234 -136 195 -89 380 -110 522 -61 91 32 177 93 275 196 74 79 76
81 62 107 -17 32 -17 38 -4 30 6 -3 10 1 10 10 0 11 -5 15 -14 12 -18 -7 -30
34 -13 45 8 5 7 8 -4 8 -9 0 -19 9 -22 20 -3 11 -1 20 5 20 6 0 7 11 4 26 -9
35 -53 99 -58 84 -2 -6 -18 9 -37 35 -103 144 -317 225 -511 195z m223 -163
c52 -31 104 -87 125 -136 8 -20 16 -65 16 -101 2 -114 -69 -219 -172 -256 -54
-19 -150 -17 -198 5 -55 25 -111 76 -137 125 -29 55 -31 183 -4 238 27 53 83
107 141 135 68 32 163 28 229 -10z"/>
<path d="M5365 6863 c-30 -7 -73 -52 -85 -89 -14 -43 1 -102 35 -134 38 -35
129 -40 169 -9 30 24 56 74 56 110 0 36 -32 90 -64 110 -30 18 -68 22 -111 12z"/>
<path d="M6193 6830 c0 -25 2 -35 4 -22 2 12 2 32 0 45 -2 12 -4 2 -4 -23z"/>
<path d="M5736 5658 c-20 -27 -20 -42 -3 -57 19 -15 50 19 45 50 -4 31 -23 34
-42 7z"/>
<path d="M2860 5646 c0 -27 26 -59 44 -53 16 5 20 46 6 63 -20 23 -50 18 -50
-10z"/>
<path d="M4167 5582 c5 -11 3 -13 -7 -7 -9 5 -11 4 -6 -4 4 -6 2 -18 -4 -26
-15 -18 -44 -20 -34 -2 4 6 -2 4 -13 -5 -11 -10 -24 -18 -29 -18 -5 0 -2 5 6
10 21 14 -5 13 -31 0 -10 -6 -19 -7 -19 -3 0 4 -20 9 -44 10 -54 2 -66 -17
-33 -51 17 -19 166 -79 199 -81 3 0 10 -3 14 -7 4 -5 20 -8 36 -8 15 0 28 -4
28 -10 0 -6 31 -10 74 -10 64 0 92 6 198 46 68 25 139 55 158 65 l35 19 -30
-5 -30 -4 25 20 25 20 -50 -7 c-27 -4 -73 -8 -101 -9 -28 -1 -56 -5 -63 -9 -6
-4 -11 -1 -11 8 0 9 -5 16 -11 16 -6 0 -9 7 -6 14 4 10 1 13 -9 9 -8 -3 -13
-12 -10 -19 3 -8 1 -14 -4 -14 -6 0 -10 9 -10 21 0 18 -4 20 -26 15 -15 -4
-23 -3 -20 2 3 6 -3 12 -14 15 -11 3 -23 1 -26 -4 -3 -5 -10 -9 -15 -9 -6 0
-7 5 -4 10 3 6 1 10 -4 10 -6 0 -11 -3 -11 -7 0 -11 -57 -8 -72 4 -7 6 -23 13
-35 15 -16 4 -20 2 -16 -10z m43 -18 c0 -8 -5 -12 -10 -9 -6 4 -8 11 -5 16 9
14 15 11 15 -7z"/>
<path d="M5040 4929 c-115 -40 -417 -79 -611 -79 -64 0 -79 3 -79 15 0 8 5 15
11 15 5 0 7 -4 4 -10 -9 -14 19 -12 33 2 10 10 15 10 21 -1 12 -19 34 -9 36
17 1 17 -2 19 -16 12 -23 -13 -71 -16 -87 -6 -7 4 -18 4 -25 -1 -14 -10 -35
-9 -61 2 -10 5 -26 4 -35 -2 -9 -5 -29 -8 -46 -5 -55 8 -70 7 -68 -5 1 -6 -4
-14 -12 -17 -8 -3 -15 -1 -15 4 0 6 -5 10 -11 10 -5 0 -7 -5 -3 -12 15 -25
-332 16 -452 53 -78 24 -96 18 -32 -11 62 -27 188 -56 338 -77 175 -25 623
-24 798 0 197 28 372 79 372 107 0 6 -1 9 -2 9 -2 -1 -28 -10 -58 -20z"/>
<path d="M4370 4910 c0 -5 5 -10 11 -10 5 0 7 5 4 10 -3 6 -8 10 -11 10 -2 0
-4 -4 -4 -10z"/>
<path d="M3220 4574 c-10 -11 -9 -19 4 -39 29 -43 66 -28 45 19 -15 31 -34 39
-49 20z"/>
<path d="M5382 4568 c-14 -14 -16 -54 -3 -63 12 -7 53 44 48 59 -5 16 -31 18
-45 4z"/>
<path d="M2227 2972 c-25 -27 -21 -42 12 -42 31 0 64 25 58 44 -6 19 -52 18
-70 -2z"/>
<path d="M6350 2972 c0 -21 42 -44 65 -36 21 8 19 20 -7 38 -31 22 -58 20 -58
-2z"/>
<path d="M2890 2452 c-31 -25 -21 -52 18 -52 37 0 60 25 45 48 -15 24 -36 26
-63 4z"/>
<path d="M5697 2453 c-13 -12 -7 -41 9 -47 28 -11 54 -6 61 10 10 28 -49 59
-70 37z"/>
<path d="M3631 2734 c0 -11 3 -14 6 -6 3 7 2 16 -1 19 -3 4 -6 -2 -5 -13z"/>
</g>
</svg>
